<svg width="436" height="788" viewBox="0 0 436 788" fill="none" xmlns="http://www.w3.org/2000/svg">
<rect x="432.227" y="324.116" width="417" height="421" transform="rotate(139.59 432.227 324.116)" stroke="#0FF0FC" stroke-opacity="0.5"/>
<rect x="314.23" y="323.342" width="417" height="421" transform="rotate(139.59 314.23 323.342)" stroke="#0FF0FC" stroke-opacity="0.5"/>
<rect x="357.229" y="323.624" width="417" height="421" transform="rotate(139.59 357.229 323.624)" stroke="#0FF0FC" stroke-opacity="0.5"/>
<rect x="398.228" y="323.893" width="417" height="421" transform="rotate(139.59 398.228 323.893)" stroke="#0FF0FC" stroke-opacity="0.5"/>
<rect x="280.257" y="319.119" width="267.453" height="312.454" transform="rotate(139.59 280.257 319.119)" stroke="#0FF0FC" stroke-opacity="0.5"/>
<rect x="248.26" y="318.598" width="267.453" height="312.454" transform="rotate(139.59 248.26 318.598)" stroke="#0FF0FC" stroke-opacity="0.5"/>
<rect x="214.26" y="318.375" width="267.453" height="312.454" transform="rotate(139.59 214.26 318.375)" stroke="#0FF0FC" stroke-opacity="0.5"/>
<rect x="176.261" y="318.126" width="124.034" height="149.563" transform="rotate(139.59 176.261 318.126)" stroke="#0FF0FC" stroke-opacity="0.5"/>
<rect x="102.278" y="315.326" width="124.034" height="149.563" transform="rotate(139.59 102.278 315.326)" stroke="#0FF0FC" stroke-opacity="0.5"/>
<rect x="88.2782" y="315.234" width="124.034" height="160.015" transform="rotate(139.59 88.2782 315.234)" stroke="#0FF0FC" stroke-opacity="0.5"/>
<rect x="126.277" y="315.484" width="124.034" height="149.563" transform="rotate(139.59 126.277 315.484)" stroke="#0FF0FC" stroke-opacity="0.5"/>
<rect x="159.277" y="315.7" width="124.034" height="149.563" transform="rotate(139.59 159.277 315.7)" stroke="#0FF0FC" stroke-opacity="0.5"/>
<rect x="113.278" y="315.398" width="124.034" height="149.563" transform="rotate(139.59 113.278 315.398)" stroke="#0FF0FC" stroke-opacity="0.5"/>
<rect x="142.277" y="315.589" width="124.034" height="149.563" transform="rotate(139.59 142.277 315.589)" stroke="#0FF0FC" stroke-opacity="0.5"/>
<rect x="197.899" y="704.437" width="124.034" height="149.563" transform="rotate(139.111 197.899 704.437)" stroke="#0FF0FC" stroke-opacity="0.5"/>
<rect x="123.895" y="702.256" width="124.034" height="149.563" transform="rotate(139.111 123.895 702.256)" stroke="#0FF0FC" stroke-opacity="0.5"/>
<rect x="109.895" y="702.281" width="124.034" height="160.015" transform="rotate(139.111 109.895 702.281)" stroke="#0FF0FC" stroke-opacity="0.5"/>
<rect x="147.895" y="702.213" width="124.034" height="149.563" transform="rotate(139.111 147.895 702.213)" stroke="#0FF0FC" stroke-opacity="0.5"/>
<rect x="180.895" y="702.154" width="124.034" height="149.563" transform="rotate(139.111 180.895 702.154)" stroke="#0FF0FC" stroke-opacity="0.5"/>
<rect x="134.895" y="702.236" width="124.034" height="149.563" transform="rotate(139.111 134.895 702.236)" stroke="#0FF0FC" stroke-opacity="0.5"/>
<rect x="163.895" y="702.184" width="124.034" height="149.563" transform="rotate(139.111 163.895 702.184)" stroke="#0FF0FC" stroke-opacity="0.5"/>
</svg>
