<svg width="431" height="783" viewBox="0 0 431 783" fill="none" xmlns="http://www.w3.org/2000/svg">
<rect x="0.705195" y="273.103" width="417" height="421" transform="rotate(-40.7858 0.705195 273.103)" stroke="#0FF0FC" stroke-opacity="0.5"/>
<rect x="118.705" y="273.103" width="417" height="421" transform="rotate(-40.7858 118.705 273.103)" stroke="#0FF0FC" stroke-opacity="0.5"/>
<rect x="75.7052" y="273.103" width="417" height="421" transform="rotate(-40.7858 75.7052 273.103)" stroke="#0FF0FC" stroke-opacity="0.5"/>
<rect x="34.7052" y="273.103" width="417" height="421" transform="rotate(-40.7858 34.7052 273.103)" stroke="#0FF0FC" stroke-opacity="0.5"/>
<rect x="152.705" y="277.103" width="267.453" height="312.454" transform="rotate(-40.7858 152.705 277.103)" stroke="#0FF0FC" stroke-opacity="0.5"/>
<rect x="184.705" y="277.414" width="267.453" height="312.454" transform="rotate(-40.7858 184.705 277.414)" stroke="#0FF0FC" stroke-opacity="0.5"/>
<rect x="218.705" y="277.414" width="267.453" height="312.454" transform="rotate(-40.7858 218.705 277.414)" stroke="#0FF0FC" stroke-opacity="0.5"/>
<rect x="256.705" y="277.414" width="124.034" height="149.563" transform="rotate(-40.7858 256.705 277.414)" stroke="#0FF0FC" stroke-opacity="0.5"/>
<rect x="330.705" y="279.728" width="124.034" height="149.563" transform="rotate(-40.7858 330.705 279.728)" stroke="#0FF0FC" stroke-opacity="0.5"/>
<rect x="344.705" y="279.728" width="124.034" height="160.015" transform="rotate(-40.7858 344.705 279.728)" stroke="#0FF0FC" stroke-opacity="0.5"/>
<rect x="306.705" y="279.728" width="124.034" height="149.563" transform="rotate(-40.7858 306.705 279.728)" stroke="#0FF0FC" stroke-opacity="0.5"/>
<rect x="273.705" y="279.728" width="124.034" height="149.563" transform="rotate(-40.7858 273.705 279.728)" stroke="#0FF0FC" stroke-opacity="0.5"/>
<rect x="319.705" y="279.728" width="124.034" height="149.563" transform="rotate(-40.7858 319.705 279.728)" stroke="#0FF0FC" stroke-opacity="0.5"/>
<rect x="290.705" y="279.728" width="124.034" height="149.563" transform="rotate(-40.7858 290.705 279.728)" stroke="#0FF0FC" stroke-opacity="0.5"/>
<rect x="500.899" y="699.437" width="124.034" height="149.563" transform="rotate(139.111 500.899 699.437)" stroke="#0FF0FC" stroke-opacity="0.5"/>
<rect x="426.895" y="697.256" width="124.034" height="149.563" transform="rotate(139.111 426.895 697.256)" stroke="#0FF0FC" stroke-opacity="0.5"/>
<rect x="412.895" y="697.281" width="124.034" height="160.015" transform="rotate(139.111 412.895 697.281)" stroke="#0FF0FC" stroke-opacity="0.5"/>
<rect x="450.895" y="697.213" width="124.034" height="149.563" transform="rotate(139.111 450.895 697.213)" stroke="#0FF0FC" stroke-opacity="0.5"/>
<rect x="483.895" y="697.154" width="124.034" height="149.563" transform="rotate(139.111 483.895 697.154)" stroke="#0FF0FC" stroke-opacity="0.5"/>
<rect x="437.895" y="697.236" width="124.034" height="149.563" transform="rotate(139.111 437.895 697.236)" stroke="#0FF0FC" stroke-opacity="0.5"/>
<rect x="466.895" y="697.184" width="124.034" height="149.563" transform="rotate(139.111 466.895 697.184)" stroke="#0FF0FC" stroke-opacity="0.5"/>
</svg>
